<svg width="165" height="60" viewBox="0 0 165 60" fill="none" xmlns="http://www.w3.org/2000/svg">
<g clip-path="url(#clip0_62_57)">
<path d="M5.96733 22.7497H0V40.3102H5.96733V22.7497ZM3.3272 38.2051H2.64013V24.8569H3.3272V38.2051Z" fill="white"/>
<path d="M11.3137 25.0266C10.5028 25.8765 9.86236 26.8731 9.42677 27.9627C8.96551 29.1003 8.73209 30.3169 8.73969 31.5439C8.7318 32.761 8.96703 33.9675 9.43166 35.0929C9.8963 36.2184 10.581 37.2404 11.4459 38.0992C12.2935 38.9306 13.2931 39.5924 14.3905 40.0486C15.7328 40.6101 17.1889 40.8485 18.6408 40.7444C20.0927 40.6402 21.4997 40.1966 22.7476 39.4494C23.4411 39.0296 24.0763 38.5205 24.6365 37.9354C25.2013 37.3451 25.6893 36.6861 26.0888 35.974V30.1218H19.3022V33.8069H20.8867C20.5428 34.2396 20.1106 34.5943 19.6187 34.8475C19.1124 35.1056 18.5507 35.2366 17.9821 35.229C17.4886 35.2324 16.9991 35.1387 16.5419 34.9534C16.105 34.7758 15.7065 34.5161 15.3681 34.1884C15.0242 33.8564 14.7516 33.4582 14.5668 33.018C14.3717 32.5511 14.2729 32.0497 14.2763 31.5439C14.272 31.0405 14.3617 30.5406 14.5408 30.0699C14.7034 29.6352 14.9505 29.2367 15.2679 28.8975C15.5768 28.571 15.9498 28.3113 16.3636 28.1345C16.8062 27.9446 17.284 27.85 17.7658 27.8569C18.2419 27.86 18.7147 27.9354 19.168 28.0806C19.6051 28.2099 20.0098 28.4297 20.3559 28.7257L23.5609 24.1977C23.1192 23.8289 22.631 23.5193 22.1086 23.277C21.5249 22.9979 20.915 22.7771 20.2877 22.6178C19.45 22.4109 18.5887 22.3135 17.7257 22.3282C16.504 22.3187 15.2939 22.5658 14.1742 23.0533C13.0987 23.5151 12.1263 24.1859 11.3137 25.0266ZM17.876 24.8029C18.2474 24.8001 18.6185 24.8268 18.9857 24.8828C19.2796 24.9264 19.5706 24.9878 19.8571 25.0666C20.1199 25.1302 20.3761 25.2184 20.6223 25.3302L20.1996 25.9294C19.9993 25.8595 19.7589 25.7896 19.5125 25.7177C19.3122 25.6658 19.0558 25.6138 18.7734 25.5599C18.4773 25.5067 18.1769 25.4806 17.876 25.482C17.072 25.474 16.2741 25.6211 15.5263 25.9154C14.8186 26.1955 14.1758 26.6169 13.6374 27.1538C13.0908 27.7035 12.6604 28.3568 12.3714 29.0752C12.0561 29.8578 11.8988 30.6947 11.9086 31.5379C11.8986 32.3817 12.0601 33.2188 12.3834 33.9987C12.6839 34.7217 13.129 35.3762 13.6914 35.9221C14.2468 36.4599 14.9039 36.8822 15.6245 37.1645C16.3773 37.4585 17.1796 37.6063 17.9882 37.5999C18.9764 37.6087 19.9514 37.3727 20.8255 36.9128C21.6996 36.453 22.4455 35.7838 22.996 34.9654V32.3329H20.8867V31.7017H23.6911V35.1531C23.0828 36.0919 22.2588 36.8725 21.2873 37.4301C20.2837 38.005 19.1435 38.3003 17.9861 38.285C17.0858 38.2916 16.1929 38.1219 15.358 37.7856C14.5598 37.4646 13.8298 36.9956 13.2067 36.4035C12.5825 35.8034 12.0882 35.0822 11.7544 34.2843C11.3904 33.4167 11.2078 32.4843 11.2176 31.5439C11.2059 30.6062 11.3809 29.6755 11.7324 28.8056C12.0529 28.0128 12.5298 27.2922 13.1346 26.6864C13.7418 26.0926 14.4597 25.6231 15.2479 25.3043C16.0818 24.9646 16.9752 24.7942 17.876 24.8029Z" fill="white"/>
<path d="M34.4058 33.6751V22.7497H28.781V33.9128C28.7579 34.9488 28.9326 35.9798 29.2958 36.9507C29.6087 37.7673 30.1112 38.4983 30.7621 39.0839C31.4267 39.662 32.2072 40.0923 33.0516 40.3462C35.0189 40.9055 37.1038 40.9055 39.0711 40.3462C39.9213 40.0909 40.7082 39.6601 41.3807 39.0819C42.0402 38.5005 42.55 37.7696 42.867 36.9507C43.2289 35.9829 43.4036 34.9555 43.3818 33.9228V22.7497H37.733V33.6751C37.733 34.2903 37.6054 34.7603 37.3504 35.0852C37.094 35.4088 36.6673 35.5726 36.0684 35.5726C35.4694 35.5726 35.0428 35.4088 34.7884 35.0852C34.534 34.7616 34.4058 34.2903 34.4058 33.6751ZM36.0684 37.5999C38.7098 37.5999 40.0306 36.3096 40.0306 33.729V24.8569H40.7437V33.729C40.7437 35.2031 40.3384 36.3309 39.5278 37.1125C38.7172 37.8941 37.564 38.2843 36.0684 38.2829C34.5727 38.2829 33.4242 37.8928 32.623 37.1125C31.8217 36.3322 31.4211 35.2044 31.4211 33.729V24.8569H32.1082V33.729C32.1082 36.3096 33.4282 37.5999 36.0684 37.5999Z" fill="white"/>
<path d="M48.9025 36.2556H57.1393L53.0209 25.488L48.9025 36.2556ZM51.833 34.8575L53.0209 31.7756L54.2088 34.8575H51.833Z" fill="white"/>
<path d="M50.9096 22.7497L44.2272 40.3102H49.7738L50.3548 38.7304H55.6871L56.268 40.3102H61.8147L55.1342 22.7497H50.9096ZM57.8905 38.2051L57.3877 36.8888H48.6741L48.1733 38.2051H47.4322L52.5301 24.8569H53.5317L58.6277 38.2051H57.8905Z" fill="white"/>
<path d="M69.0479 33.5712L73.8815 40.3102H78.5227V22.7497H73.0101V29.5166L68.1505 22.7497H63.5293V40.3102H69.0479V33.5712ZM66.6722 38.2051H65.9851V24.8569H66.6722L75.3858 37.0206V24.8569H76.0729V38.2051H75.3858L66.6722 26.0413V38.2051Z" fill="white"/>
<path d="M84.9187 36.2556H93.1556L89.0372 25.488L84.9187 36.2556ZM87.8493 34.8575L89.0372 31.7756L90.225 34.8575H87.8493Z" fill="white"/>
<path d="M93.7286 29.5306L93.1917 28.1185L91.1425 22.7497H86.9159L80.2355 40.3102H85.7821L86.3631 38.7304H91.7034L91.9818 39.4893C93.5383 39.2796 95.8419 39.2896 97.3342 39.006L93.7286 29.5306ZM93.394 36.8888H84.6804L84.1776 38.2051H83.4385L88.5385 24.8569H89.54L94.638 38.2051H93.8968L93.394 36.8888Z" fill="white"/>
<path d="M104.341 50.3489H105.054L104.698 49.4241L104.341 50.3489Z" fill="black"/>
<path d="M130.688 50.3489H131.401L131.045 49.4241L130.688 50.3489Z" fill="black"/>
<path d="M73.4208 48.2716C73.2685 48.1787 73.0925 48.1315 72.914 48.1358H72.8279V49.3043H72.914C73.0944 49.3103 73.2726 49.2638 73.4268 49.1704C73.4911 49.1142 73.5426 49.0449 73.5779 48.9673C73.6132 48.8896 73.6314 48.8053 73.6314 48.72C73.6314 48.6348 73.6132 48.5505 73.5779 48.4728C73.5426 48.3952 73.4911 48.3259 73.4268 48.2697L73.4208 48.2716Z" fill="black"/>
<path d="M122.55 48.2717C122.396 48.1785 122.219 48.132 122.039 48.1378H121.951V49.3063H122.039C122.219 49.3121 122.396 49.2656 122.55 49.1725C122.615 49.1172 122.668 49.0482 122.705 48.9704C122.741 48.8926 122.76 48.8078 122.76 48.7221C122.76 48.6363 122.741 48.5515 122.705 48.4737C122.668 48.3959 122.615 48.327 122.55 48.2717Z" fill="black"/>
<path d="M49.5013 50.3489H50.2145L49.8579 49.4241L49.5013 50.3489Z" fill="black"/>
<path d="M133.609 43.6718C131.854 43.0926 129.619 45.3196 130.003 46.0506C130.003 46.0506 128.124 45.789 128.601 44.5047C128.662 44.1382 128.772 43.7815 128.928 43.4441H98.512C98.2176 44.0433 97.861 45.0619 98.4419 45.6232C98.4419 45.6232 97.0498 44.6884 96.9476 43.4441H90.5416C90.5175 44.0832 89.8685 45.0879 90.6237 45.8189C90.1504 45.6494 89.7532 45.3172 89.5036 44.8819C89.2539 44.4466 89.1681 43.9368 89.2616 43.4441H0V55.2623H156.559V43.4441H136.784C135.668 43.7417 134.41 43.9414 133.609 43.6718ZM11.9046 51.9847H10.216V50.0892L9.13829 51.6671L8.05259 50.0892V51.9847H6.36796V46.7157H7.77015L9.14029 48.735L10.5104 46.7137H11.9126L11.9046 51.9847ZM19.5886 51.9847H16.4257V46.7157H19.5325V48.0979H18.1063V48.6831H19.5085V49.9934H18.1063V50.5926H19.5886V51.9847ZM26.5996 51.9847L26.0127 50.9321L25.4398 51.9847H23.5949L25.0992 49.2583L23.6971 46.7157H25.5439L26.0187 47.5766L26.4934 46.7157H28.3483L26.9461 49.2583L28.4445 51.9847H26.5996ZM34.3157 51.9847H32.5249V46.7157H34.3157V51.9847ZM42.9892 51.8189C42.791 51.9011 42.5868 51.9678 42.3783 52.0187C41.7303 52.1759 41.0503 52.1391 40.4232 51.9128C40.0868 51.7873 39.7794 51.595 39.5198 51.3476C39.2603 51.1018 39.0556 50.8045 38.9189 50.4747C38.773 50.1179 38.7001 49.7355 38.7045 49.3502C38.6986 48.9582 38.7743 48.5691 38.9269 48.2077C39.0667 47.8797 39.2711 47.5829 39.5278 47.3349C39.7828 47.0918 40.0847 46.9029 40.4152 46.7796C40.7582 46.6471 41.123 46.5793 41.4909 46.5799C41.7604 46.5765 42.0294 46.6054 42.2921 46.6658C42.4977 46.7154 42.6987 46.7822 42.8931 46.8655C43.0711 46.9396 43.241 47.032 43.3999 47.1412L42.5686 48.6032C42.4803 48.5369 42.388 48.4762 42.2921 48.4215C42.1878 48.3747 42.0807 48.334 41.9716 48.2996C41.8341 48.2578 41.6908 48.2376 41.547 48.2397C41.2445 48.2378 40.9534 48.3539 40.7357 48.5633C40.6305 48.6647 40.5471 48.7864 40.4906 48.921C40.4342 49.0556 40.4058 49.2003 40.4072 49.3462C40.4063 49.4941 40.437 49.6405 40.4973 49.7757C40.5601 49.9121 40.6509 50.0339 40.7637 50.1332C40.871 50.2352 40.9968 50.3158 41.1343 50.3709C41.2835 50.4295 41.4427 50.4587 41.6031 50.4567C41.7556 50.4593 41.9076 50.4384 42.0538 50.3948C42.1694 50.3596 42.2808 50.312 42.3863 50.253C42.4877 50.1993 42.5814 50.1321 42.6647 50.0533L43.496 51.5133C43.3405 51.6358 43.1702 51.7384 42.9892 51.8189ZM50.8315 51.9847L50.6572 51.5093H49.0547L48.8804 51.9847H47.2178L49.221 46.7157H50.4889L52.4921 51.9847H50.8315ZM61.0735 51.9847H59.6713L58.223 49.9614V51.9847H56.5665V46.7157H57.9526L59.4109 48.745V46.7157H61.0655L61.0735 51.9847ZM73.6131 51.9847L72.8219 50.6485V51.9847H71.1352V46.7157H72.9561C73.2742 46.7125 73.591 46.7576 73.8955 46.8496C74.1688 46.9333 74.4232 47.0689 74.6447 47.249C74.8558 47.4238 75.0249 47.6436 75.1395 47.8922C75.2625 48.1693 75.3233 48.4699 75.3178 48.773C75.3236 49.0018 75.2855 49.2296 75.2056 49.4441C75.1433 49.6066 75.0612 49.7609 74.9612 49.9035C74.8593 50.0355 74.7393 50.1525 74.6047 50.251L75.5942 51.9887L73.6131 51.9847ZM82.8816 51.9847H79.7126V46.7157H82.8275V48.0979H81.4013V48.6831H82.8035V49.9934H81.4013V50.5926H82.8816V51.9847ZM90.4154 51.1039C90.3429 51.3044 90.225 51.4855 90.0708 51.6332C89.8979 51.7926 89.6931 51.9138 89.4699 51.9887C89.1908 52.0803 88.8983 52.1242 88.6045 52.1185C88.4186 52.1189 88.2327 52.1096 88.0477 52.0906C87.8944 52.0758 87.7419 52.0531 87.591 52.0227C87.4498 51.9989 87.3101 51.9676 87.1723 51.9288V50.3489C87.2915 50.3871 87.4134 50.4164 87.5369 50.4368C87.6556 50.4649 87.7761 50.4856 87.8974 50.4987C88.0304 50.5145 88.1642 50.5225 88.2981 50.5227C88.5404 50.5227 88.6626 50.4328 88.6626 50.255C88.6599 50.2143 88.6487 50.1747 88.6297 50.1386C88.6107 50.1025 88.5844 50.0707 88.5525 50.0453C88.4628 49.9609 88.3685 49.8816 88.27 49.8076C88.1578 49.7217 88.0357 49.6259 87.9054 49.52C87.7733 49.4105 87.6519 49.2888 87.5429 49.1565C87.4275 49.0167 87.3324 48.8613 87.2604 48.6951C87.1823 48.5052 87.1448 48.3011 87.1503 48.0959C87.1454 47.8703 87.1913 47.6464 87.2845 47.4408C87.3708 47.2561 87.4982 47.0936 87.6571 46.9654C87.8235 46.8353 88.0132 46.7377 88.2159 46.6778C88.438 46.6108 88.669 46.5778 88.901 46.5799C89.0281 46.5796 89.1552 46.5863 89.2816 46.5999L89.6221 46.6338L89.9627 46.6818V48.1598L89.8184 48.1438C89.7764 48.1438 89.7303 48.1318 89.6762 48.1279C89.6208 48.1247 89.5653 48.1247 89.51 48.1279C89.4779 48.1279 89.4398 48.1279 89.3918 48.1279C89.3464 48.1292 89.3013 48.1359 89.2576 48.1478C89.2166 48.1571 89.1782 48.1756 89.1454 48.2018C89.13 48.2159 89.1179 48.2333 89.11 48.2526C89.102 48.2719 89.0984 48.2927 89.0993 48.3136C89.0993 48.3555 89.1334 48.4075 89.2055 48.4714C89.2776 48.5353 89.3637 48.6072 89.4679 48.6931C89.5721 48.779 89.6842 48.8729 89.8084 48.9847C89.9351 49.0988 90.0493 49.226 90.149 49.3642C90.255 49.5135 90.3425 49.6752 90.4094 49.8456C90.4836 50.0365 90.5203 50.24 90.5175 50.4448C90.5227 50.6688 90.4881 50.8919 90.4154 51.1039ZM98.2576 48.0979H97.2841V51.9847H95.5494V48.0979H94.5739V46.7157H98.2656L98.2576 48.0979ZM105.669 51.9847L105.495 51.5093H103.892L103.718 51.9847H102.06L104.063 46.7157H105.331L107.334 51.9847H105.669ZM115.781 50.0653C115.787 50.3745 115.735 50.6822 115.627 50.9721C115.532 51.2179 115.379 51.4376 115.182 51.6132C114.98 51.7863 114.744 51.9155 114.489 51.9927C113.9 52.1601 113.275 52.1601 112.686 51.9927C112.432 51.9164 112.197 51.787 111.997 51.6132C111.801 51.4374 111.65 51.2176 111.556 50.9721C111.448 50.6822 111.396 50.3745 111.402 50.0653V46.7157H113.089V49.9934C113.079 50.1435 113.12 50.2927 113.205 50.4168C113.311 50.5106 113.447 50.5624 113.589 50.5624C113.73 50.5624 113.867 50.5106 113.972 50.4168C114.057 50.2923 114.098 50.1434 114.088 49.9934V46.7157H115.781V50.0653ZM122.752 51.9847L121.951 50.6485V51.9847H120.264V46.7157H122.087C122.404 46.7125 122.721 46.7576 123.024 46.8496C123.298 46.9324 123.553 47.0682 123.774 47.249C123.985 47.423 124.155 47.643 124.268 47.8922C124.392 48.169 124.453 48.4699 124.447 48.773C124.453 49.0016 124.416 49.2294 124.336 49.4441C124.274 49.6071 124.191 49.7615 124.09 49.9035C123.988 50.0355 123.868 50.1525 123.733 50.251L124.725 51.9887L122.752 51.9847ZM132.028 51.9847L131.854 51.5093H130.252L130.077 51.9847H128.401L130.404 46.7157H131.672L133.675 51.9847H132.028ZM146.509 46.7157H150.201V48.0979H149.225V51.9847H147.483V48.0979H146.509V46.7157ZM139.158 46.7157L140.616 48.745V46.7157H142.27V51.9847H140.868L139.418 49.9614V51.9847H137.763V46.7157H139.158Z" fill="#3F3931"/>
<path d="M2.69822 16.2384C3.54249 17.0662 4.53886 17.724 5.63281 18.1758C7.56184 18.9724 9.70292 19.1018 11.7143 18.5433C12.5052 18.324 13.2626 17.9988 13.9658 17.5766C14.6574 17.1581 15.2905 16.6504 15.8488 16.0666C16.4122 15.4787 16.8982 14.8216 17.295 14.1112V8.28496H10.5305V11.9601H12.1089C11.7666 12.3908 11.3365 12.7441 10.847 12.9967C10.3421 13.2552 9.78188 13.3875 9.21441 13.3822C8.72277 13.3855 8.23533 13.2919 7.78017 13.1065C7.3441 12.9288 6.9468 12.6683 6.61034 12.3396C6.26686 12.008 5.9943 11.6105 5.80909 11.1711C5.61448 10.7055 5.51636 10.2055 5.52064 9.70107C5.51682 9.19915 5.60578 8.70082 5.78305 8.23103C5.94546 7.79844 6.19188 7.40206 6.50818 7.06458C6.81954 6.73727 7.19528 6.47753 7.61191 6.3016C8.05479 6.11284 8.5325 6.01894 9.0141 6.02597C9.49022 6.02863 9.96311 6.10407 10.4163 6.24967C10.8526 6.37829 11.2568 6.59747 11.6021 6.89281L14.7871 2.37883C14.3465 2.01111 13.8596 1.70225 13.3389 1.46006C12.7509 1.17927 12.1362 0.957799 11.504 0.798937C10.6685 0.594909 9.81004 0.499576 8.95 0.515315C7.73184 0.50536 6.5252 0.751025 5.40846 1.23635C4.33903 1.6988 3.37223 2.36818 2.56401 3.20573C1.7561 4.05254 1.1183 5.0458 0.685077 6.13183C0.225744 7.26573 -0.00697293 8.47819 5.98215e-06 9.70107C-0.00899488 10.9149 0.225016 12.1183 0.688332 13.2409C1.15165 14.3634 1.83495 15.3825 2.69822 16.2384Z" fill="#0BAA6D"/>
<path d="M25.6682 14.0073L28.3003 18.4434H34.8806L31.5914 12.6671C32.0405 12.3421 32.4394 11.9531 32.7753 11.5127C33.1117 11.0411 33.3857 10.5282 33.5905 9.9867C33.854 9.27301 33.9791 8.51591 33.9591 7.75568C33.9789 6.74833 33.7772 5.74887 33.3682 4.82758C32.9881 3.99988 32.4252 3.26859 31.7216 2.68843C30.9864 2.09302 30.1411 1.64719 29.2337 1.37618C28.2228 1.07089 27.1711 0.920699 26.1149 0.930773H20.0594V18.4434H25.6682V14.0073ZM25.6682 5.65847H25.9566C26.5544 5.64005 27.1446 5.7955 27.6553 6.10587C28.12 6.40414 28.3524 6.90281 28.3524 7.60188C28.3524 8.30095 28.12 8.79962 27.6553 9.09789C27.1444 9.40766 26.5542 9.56243 25.9566 9.54329H25.6682V5.65847Z" fill="#0BAA6D"/>
<path d="M47.2539 13.8495H42.3302V11.8282H46.9914V7.47004H42.3302V5.52863H47.0696V0.934753H36.7234V18.4434H47.2539V13.8495Z" fill="#0BAA6D"/>
<path d="M60.6809 13.8495H55.7572V11.8282H60.4164V7.47004H55.7572V5.52863H60.4946V0.934753H50.1504V18.4434H60.6809V13.8495Z" fill="#0BAA6D"/>
<path d="M69.078 11.7224L73.8956 18.4434H78.5288V0.934753H73.0262V7.67976L68.1826 0.934753H63.5754V18.4434H69.078V11.7224Z" fill="#0BAA6D"/>
<path d="M151.19 36.6671C152.143 37.1733 153.041 37.7756 153.871 38.4647C154.245 37.1744 155.399 34.5859 157.975 34.1185C156.577 32.6811 155.018 31.4079 153.33 30.3236C152.178 31.3222 150.88 33.2037 151.188 36.6731L151.19 36.6671Z" fill="#0BAA6D"/>
<path d="M155.904 40.3662C156.864 41.4037 157.761 42.4975 158.59 43.6418C159.094 42.9138 159.793 42.3423 160.608 41.9932C161.424 41.6441 162.321 41.5315 163.197 41.6684C162.299 39.7517 161.186 37.9425 159.88 36.2756C158.909 36.537 158.027 37.0551 157.327 37.7751C156.627 38.4951 156.135 39.3904 155.904 40.3662Z" fill="#0BAA6D"/>
<path d="M164.457 44.8043C164.369 44.5426 164.271 44.289 164.175 44.0353C163.38 43.8473 162.548 43.901 161.785 44.1894C161.021 44.4778 160.362 44.9876 159.892 45.6531C160.532 46.9928 160.939 48.4316 161.094 49.9075C161.69 49.6346 162.348 49.5224 163.001 49.582C163.655 49.6416 164.281 49.8709 164.818 50.247C165.161 48.4316 165.037 46.5589 164.457 44.8043Z" fill="#0BAA6D"/>
<path d="M144.991 35.251C146.277 35.2037 147.563 35.3663 148.797 35.7324C148.582 34.3342 148.37 30.8549 150.844 28.8995C149.38 28.1684 147.848 27.5798 146.271 27.1418L145.367 26.9021C143.212 29.217 144.332 33.4015 144.981 35.251H144.991Z" fill="#0BAA6D"/>
<path d="M161.194 51.9627C161.246 53.1233 161.047 54.2815 160.609 55.3582C159.824 56.6724 157.691 59.968 157.691 59.968C158.55 60.2896 162.498 57.0439 164.209 52.3922C163.776 52.0881 163.277 51.8907 162.753 51.816C162.229 51.7414 161.695 51.7917 161.194 51.9627Z" fill="#0BAA6D"/>
<path d="M89.4719 44.8322C89.7184 45.2918 90.1276 45.6435 90.6197 45.8189C89.8645 45.0879 90.5136 44.0832 90.5376 43.4441C90.5419 43.3629 90.531 43.2816 90.5055 43.2044C90.2952 42.6052 91.7515 40.3083 93.4702 41.978C93.9246 42.4459 94.5115 42.7641 95.1523 42.8901C95.7931 43.0161 96.4573 42.9439 97.0558 42.6831C96.9626 42.9254 96.9256 43.1855 96.9476 43.4441C97.0498 44.6884 98.442 45.6232 98.442 45.6232C97.861 45.0619 98.2176 44.0453 98.5121 43.4441C98.5916 43.278 98.6805 43.1167 98.7785 42.9607C99.7778 42.9432 100.758 42.6827 101.633 42.2017C102.635 41.4847 107.965 36.2916 108.5 32.253C109.035 28.2144 103.436 22.1565 103.436 22.1565C105.824 23.9895 107.802 26.299 109.245 28.9374C111.2 32.8882 108.48 37.7577 108.472 37.7736C109.758 38.4268 111.104 38.9584 112.49 39.3615C117.468 39.761 125.979 38.4288 125.979 38.4288C120.667 34.8216 122.854 32.1332 122.854 32.1332C122.666 34.7796 127.712 38.7244 129.464 39.3236C130.584 39.7156 131.633 40.2834 132.573 41.0053C131.463 41.123 130.424 41.6099 129.625 42.3875C129.088 42.9815 128.733 43.7161 128.601 44.5047C128.12 45.789 130.003 46.0506 130.003 46.0506C129.621 45.3196 131.856 43.0925 133.609 43.6718C134.41 43.9394 135.668 43.7377 136.784 43.4441C137.608 43.2234 138.418 42.9506 139.208 42.6272C140.61 41.249 142.97 43.1585 142.97 43.1585C141.874 40.0466 139.995 41.1511 139.987 41.1611C138.341 37.8783 136.1 34.9277 133.377 32.4587L133.825 30.8708L134.414 32.221C136.185 32.9561 138.509 35.9561 138.509 35.9561L142.078 35.5866C139.985 29.8922 141.145 27.2157 142.279 26.0133C140.692 25.53 139.474 25.1545 137.175 24.5533C134.673 23.8941 131.117 22.3003 126.82 20.5027C127.178 20.1856 127.563 19.9002 127.97 19.6498C127.222 19.6312 126.479 19.7807 125.797 20.0872L124.375 19.488C124.861 18.9971 125.406 18.5671 125.997 18.2077C124.995 18.1895 124.009 18.4675 123.165 19.0067L121.336 18.3196C121.897 17.6661 122.555 17.1017 123.287 16.6458C122.053 16.6202 120.851 17.0337 119.895 17.8123L119.649 17.7224L118.385 17.289C119.169 16.3077 120.118 15.4697 121.19 14.8123C119.433 14.79 117.735 15.4455 116.452 16.6418L115.358 16.2543C116.18 15.1176 117.216 14.1509 118.407 13.4081C117.465 13.4014 116.531 13.5865 115.664 13.9519C114.796 14.3173 114.012 14.8554 113.359 15.5333L112.071 15.038C112.914 13.763 114.024 12.6856 115.324 11.8802C114.344 11.8765 113.373 12.0786 112.476 12.4733C111.579 12.868 110.775 13.4465 110.116 14.1711C109.746 13.9914 109.393 13.8096 109.057 13.6159C109.903 12.289 111.037 11.1688 112.376 10.3382C111.433 10.3301 110.499 10.5145 109.631 10.88C108.763 11.2455 107.979 11.7844 107.328 12.4634C107.077 12.2637 106.827 12.0499 106.585 11.8302C107.477 10.4096 108.442 9.03558 109.475 7.71372C107.909 8.36907 106.451 9.25511 105.148 10.3422C104.908 10.0686 104.668 9.77897 104.415 9.46339C104.163 9.14781 103.868 8.76632 103.614 8.44275C105.479 7.37418 109.423 5.71439 109.423 5.71439C107.753 5.26499 103.814 6.35553 102.38 6.79295C102.052 6.36852 101.699 5.96369 101.322 5.58057C103.733 4.95201 106.188 4.50732 108.666 4.25034C105.738 3.00797 102.471 2.80838 99.4135 3.68509C99.093 3.40347 98.7565 3.11386 98.3819 2.82025C100.229 1.5779 103.79 1.82158 103.79 1.82158C100.056 0.455401 97.6948 1.14648 96.6792 1.68177C96.2025 1.39015 95.6616 1.08256 95.0386 0.756998C93.9229 0.171779 90.6317 -0.329553 89.9046 0.289622C88.4363 1.52797 84.0815 1.96139 82.9417 3.24368C80.2295 6.29961 82.499 7.42211 82.499 7.42211C82.499 7.42211 86.5173 10.4581 87.7372 11.5846C87.7372 11.5846 92.7451 18.789 92.07 18.6132C91.3949 18.4374 89.7744 16.7776 88.4203 15.3296L89.0673 19.0906C89.1852 20.3223 89.386 21.5448 89.6682 22.7497H91.1425L93.1837 28.1185C94.2274 29.6844 95.263 31.4081 95.92 31.6099C97.0358 31.9494 96.0021 29.4308 96.0021 29.4308C95.2354 26.1917 94.7879 22.8857 94.6661 19.5599C94.6981 15.3975 94.0651 15.3156 97.3302 14.0313C100.595 12.747 99.6158 6.28962 99.6158 6.28962C101.99 12.8129 99.5277 14.3029 98.8145 14.8402C97.184 16.0386 96.3687 16.6378 96.2305 18.1918C96.0923 19.7457 95.9701 24.5313 96.7393 26.0193C97.5085 27.5073 100.705 31.5699 100.705 31.5699L101.907 31.1405C100.661 32.5047 98.7905 38.231 98.7905 38.231C98.6883 38.6305 98.1275 38.8562 97.3382 39.006C95.8459 39.2916 93.5323 39.2796 91.9859 39.4894C91.7277 39.5219 91.4716 39.5686 91.2187 39.6292C89.1114 40.1525 89.2856 43.3302 89.2856 43.3302C89.2856 43.3682 89.2696 43.4061 89.2616 43.4441C89.1705 43.9172 89.2448 44.4071 89.4719 44.8322ZM89.1194 3.66512C89.4581 3.30168 89.8949 3.04365 90.3773 2.92211C90.992 2.91073 91.5911 3.11504 92.07 3.49934C92.07 3.49934 90.9022 6.10786 89.1194 3.66512ZM96.9316 12.3116C96.7796 12.4991 96.5921 12.6549 96.3797 12.7701C96.1672 12.8852 95.9341 12.9575 95.6937 12.9827H95.6836C95.2603 13.0262 94.8349 12.922 94.4799 12.688C94.1248 12.454 93.8621 12.1045 93.7363 11.6991C93.6106 11.2937 93.6296 10.8573 93.7902 10.4643C93.9508 10.0713 94.2429 9.74591 94.617 9.5435C94.9911 9.34109 95.4239 9.27417 95.8419 9.35413C96.2599 9.43409 96.6372 9.65599 96.9095 9.98207C97.1819 10.3081 97.3326 10.7183 97.3359 11.1426C97.3392 11.567 97.1949 11.9794 96.9276 12.3096L96.9316 12.3116Z" fill="#0BAA6D"/>
</g>
<defs>
<clipPath id="clip0_62_57">
<rect width="165" height="60" fill="white"/>
</clipPath>
</defs>
</svg>
