<svg width="946" height="344" viewBox="0 0 946 344" fill="none" xmlns="http://www.w3.org/2000/svg">
<g clip-path="url(#clip0_407_277)">
<path d="M15.4698 93.0999C20.3102 97.846 26.0227 101.617 32.2947 104.208C43.3545 108.775 55.63 109.517 67.162 106.315C71.6964 105.057 76.0388 103.193 80.0708 100.772C84.0358 98.373 87.6657 95.4621 90.8663 92.115C94.0967 88.7445 96.8831 84.9771 99.1582 80.9041V47.5004H60.3746V68.571H69.4245C67.4617 71.0403 64.9956 73.066 62.1892 74.5142C59.2949 75.9964 56.0827 76.7548 52.8292 76.7244C50.0105 76.7437 47.2158 76.2067 44.6062 75.1441C42.1061 74.1252 39.8282 72.6317 37.8992 70.7467C35.9299 68.8459 34.3672 66.5671 33.3054 64.0477C32.1896 61.3782 31.627 58.5113 31.6516 55.6194C31.6297 52.7417 32.1397 49.8846 33.1561 47.1912C34.0872 44.711 35.5 42.4384 37.3135 40.5036C39.0987 38.627 41.2529 37.1378 43.6415 36.1292C46.1807 35.0469 48.9196 34.5085 51.6808 34.5489C54.4105 34.5641 57.1218 34.9967 59.72 35.8314C62.2217 36.5689 64.5386 37.8255 66.5189 39.5188L84.7794 13.6386C82.253 11.5303 79.4617 9.75953 76.4761 8.37096C73.1048 6.76114 69.5807 5.49136 65.9562 4.58055C61.166 3.41079 56.2441 2.86421 51.3133 2.95445C44.3291 2.89737 37.4111 4.30585 31.0084 7.0884C24.8771 9.73977 19.334 13.5775 14.7003 18.3795C10.0682 23.2346 6.41151 28.9292 3.92771 35.1558C1.2942 41.6568 -0.0400432 48.6082 -3.08065e-05 55.6194C-0.0516357 62.5788 1.29003 69.4785 3.94637 75.9143C6.60272 82.3501 10.5203 88.1927 15.4698 93.0999V93.0999Z" fill="white"/>
<path d="M147.164 80.3087L162.255 105.742H199.982L181.124 72.6248C183.699 70.7612 185.986 68.5312 187.911 66.0059C189.84 63.3021 191.411 60.3615 192.586 57.257C194.096 53.1652 194.813 48.8245 194.699 44.4658C194.813 38.6903 193.656 32.9601 191.311 27.678C189.132 22.9325 185.904 18.7398 181.871 15.4136C177.655 11.9999 172.809 9.4438 167.607 7.89C161.81 6.13965 155.781 5.27858 149.725 5.33634H115.007V105.742H147.164V80.3087ZM147.164 32.4418H148.818C152.245 32.3362 155.629 33.2275 158.557 35.0069C161.221 36.717 162.553 39.576 162.553 43.584C162.553 47.592 161.221 50.451 158.557 52.1611C155.628 53.9372 152.244 54.8245 148.818 54.7148H147.164V32.4418Z" fill="white"/>
<path d="M270.922 79.404H242.693V67.8152H269.418V42.8282H242.693V31.6975H269.866V5.35925H210.548V105.742H270.922V79.404Z" fill="white"/>
<path d="M347.904 79.404H319.675V67.8152H346.388V42.8282H319.675V31.6975H346.836V5.35925H287.529V105.742H347.904V79.404Z" fill="white"/>
<path d="M396.047 67.2082L423.668 105.742H450.232V5.35925H418.683V44.0306L390.914 5.35925H364.499V105.742H396.047V67.2082Z" fill="white"/>
<path d="M34.2127 130.431H0V231.112H34.2127V130.431ZM19.076 219.042H15.1367V142.513H19.076V219.042Z" fill="#FFC924"/>
<path d="M64.865 143.486C60.216 148.359 56.5439 154.072 54.0465 160.32C51.402 166.842 50.0637 173.817 50.1073 180.852C50.0621 187.83 51.4107 194.747 54.0746 201.2C56.7385 207.652 60.6643 213.511 65.623 218.435C70.4826 223.202 76.2135 226.996 82.5054 229.612C90.2014 232.831 98.5496 234.198 106.874 233.601C115.198 233.004 123.264 230.461 130.419 226.177C134.396 223.77 138.037 220.851 141.249 217.496C144.487 214.112 147.285 210.333 149.576 206.251V172.699H110.666V193.826H119.75C117.779 196.307 115.301 198.341 112.48 199.793C109.578 201.272 106.357 202.023 103.097 201.98C100.267 201.999 97.4615 201.462 94.8399 200.399C92.3352 199.381 90.0504 197.892 88.1099 196.014C86.1384 194.11 84.5755 191.827 83.5161 189.303C82.3976 186.626 81.8312 183.752 81.8508 180.852C81.826 177.966 82.3401 175.1 83.3668 172.401C84.299 169.908 85.7157 167.624 87.5357 165.679C89.307 163.807 91.4453 162.318 93.8178 161.304C96.3553 160.216 99.0948 159.673 101.857 159.713C104.587 159.73 107.297 160.163 109.896 160.995C112.402 161.737 114.723 162.997 116.707 164.694L135.082 138.734C132.55 136.619 129.751 134.844 126.756 133.455C123.409 131.855 119.912 130.589 116.316 129.676C111.513 128.489 106.575 127.931 101.627 128.015C94.6226 127.961 87.6848 129.377 81.2651 132.172C75.0989 134.82 69.5237 138.666 64.865 143.486V143.486ZM102.489 142.203C104.618 142.187 106.746 142.341 108.851 142.662C110.536 142.912 112.205 143.263 113.847 143.715C115.354 144.08 116.823 144.586 118.234 145.227L115.811 148.662C114.662 148.261 113.284 147.86 111.872 147.448C110.723 147.15 109.253 146.853 107.634 146.544C105.936 146.238 104.214 146.089 102.489 146.097C97.8794 146.051 93.3048 146.895 89.0172 148.582C84.9595 150.188 81.2741 152.604 78.1872 155.682C75.0539 158.833 72.5859 162.579 70.9289 166.698C69.1213 171.185 68.2198 175.983 68.276 180.818C68.2184 185.655 69.1443 190.455 70.9978 194.926C72.7209 199.071 75.2725 202.823 78.4973 205.953C81.6816 209.037 85.4489 211.458 89.58 213.076C93.8963 214.762 98.4962 215.609 103.132 215.573C108.798 215.623 114.388 214.27 119.399 211.633C124.411 208.997 128.687 205.16 131.843 200.468V185.375H119.75V181.757H135.829V201.545C132.341 206.927 127.617 211.402 122.047 214.599C116.293 217.896 109.756 219.588 103.12 219.5C97.9582 219.538 92.8389 218.566 88.0525 216.638C83.4757 214.797 79.2904 212.108 75.718 208.713C72.1393 205.273 69.3055 201.138 67.3917 196.563C65.3049 191.589 64.2576 186.243 64.3138 180.852C64.247 175.476 65.2502 170.139 67.2653 165.152C69.1033 160.607 71.837 156.475 75.3046 153.002C78.7861 149.598 82.9023 146.906 87.4208 145.078C92.2019 143.13 97.3244 142.153 102.489 142.203V142.203Z" fill="#FFC924"/>
<path d="M197.26 193.071V130.431H165.011V194.433C164.879 200.373 165.88 206.284 167.963 211.851C169.757 216.532 172.638 220.723 176.369 224.081C180.18 227.396 184.655 229.863 189.496 231.318C200.775 234.525 212.729 234.525 224.008 231.318C228.883 229.855 233.394 227.385 237.249 224.07C241.031 220.736 243.954 216.546 245.771 211.851C247.846 206.302 248.848 200.411 248.723 194.491V130.431H216.336V193.071C216.336 196.598 215.605 199.293 214.142 201.155C212.672 203.01 210.226 203.949 206.792 203.949C203.358 203.949 200.912 203.01 199.454 201.155C197.995 199.3 197.26 196.598 197.26 193.071ZM206.792 215.573C221.937 215.573 229.509 208.175 229.509 193.38V142.513H233.597V193.38C233.597 201.831 231.274 208.297 226.626 212.778C221.979 217.26 215.367 219.497 206.792 219.489C198.217 219.489 191.633 217.252 187.039 212.778C182.445 208.305 180.148 201.839 180.148 193.38V142.513H184.087V193.38C184.087 208.175 191.655 215.573 206.792 215.573Z" fill="#FFC924"/>
<path d="M280.374 207.866H327.599L303.986 146.131L280.374 207.866ZM297.176 199.85L303.986 182.18L310.797 199.85H297.176Z" fill="#FFC924"/>
<path d="M291.882 130.431L253.569 231.112H285.37L288.701 222.054H319.273L322.603 231.112H354.404L316.103 130.431H291.882ZM331.906 219.042L329.023 211.496H279.065L276.194 219.042H271.944L301.173 142.513H306.915L336.132 219.042H331.906Z" fill="#FFC924"/>
<path d="M395.875 192.475L423.587 231.112H450.197V130.431H418.592V169.229L390.73 130.431H364.235V231.112H395.875V192.475ZM382.254 219.042H378.315V142.513H382.254L432.212 212.252V142.513H436.152V219.042H432.212L382.254 149.303V219.042Z" fill="#FFC924"/>
<path d="M486.868 207.866H534.092L510.48 146.131L486.868 207.866ZM503.67 199.85L510.48 182.18L517.29 199.85H503.67Z" fill="#FFC924"/>
<path d="M537.377 169.309L534.299 161.213L522.55 130.431H498.318L460.017 231.112H491.818L495.148 222.054H525.766L527.362 226.406C536.286 225.203 549.493 225.26 558.049 223.634L537.377 169.309ZM535.459 211.496H485.501L482.618 219.042H478.381L507.62 142.513H513.363L542.591 219.042H538.342L535.459 211.496Z" fill="#FFC924"/>
<path d="M598.223 288.667H602.311L600.267 283.365L598.223 288.667Z" fill="black"/>
<path d="M749.28 288.667H753.368L751.324 283.365L749.28 288.667Z" fill="black"/>
<path d="M420.946 276.757C420.073 276.224 419.064 275.954 418.04 275.979H417.546V282.678H418.04C419.074 282.713 420.096 282.446 420.98 281.911C421.349 281.588 421.644 281.191 421.846 280.746C422.049 280.3 422.153 279.817 422.153 279.328C422.153 278.839 422.049 278.356 421.846 277.911C421.644 277.466 421.349 277.068 420.98 276.746L420.946 276.757Z" fill="black"/>
<path d="M702.618 276.757C701.737 276.223 700.719 275.957 699.689 275.99H699.184V282.689H699.689C700.719 282.723 701.737 282.456 702.618 281.922C702.995 281.605 703.298 281.21 703.506 280.764C703.714 280.317 703.821 279.832 703.821 279.34C703.821 278.848 703.714 278.362 703.506 277.916C703.298 277.47 702.995 277.075 702.618 276.757V276.757Z" fill="black"/>
<path d="M283.808 288.667H287.897L285.852 283.365L283.808 288.667Z" fill="black"/>
<path d="M766.025 250.385C755.964 247.064 743.147 259.832 745.352 264.023C745.352 264.023 734.58 262.523 737.313 255.16C737.662 253.059 738.291 251.014 739.185 249.079H564.802C563.114 252.515 561.07 258.355 564.4 261.573C564.4 261.573 556.419 256.214 555.833 249.079H519.105C518.967 252.744 515.246 258.504 519.576 262.695C516.862 261.723 514.585 259.818 513.154 257.323C511.722 254.827 511.23 251.904 511.766 249.079H0V316.837H897.604V249.079H784.228C777.831 250.786 770.618 251.931 766.025 250.385ZM68.2531 298.046H58.5716V287.178L52.3929 296.225L46.1682 287.178V298.046H36.5096V267.837H44.5489L52.4043 279.414L60.2598 267.825H68.2991L68.2531 298.046ZM112.308 298.046H94.1739V267.837H111.987V275.761H103.81V279.116H111.849V286.629H103.81V290.064H112.308V298.046ZM152.504 298.046L149.139 292.011L145.855 298.046H135.277L143.902 282.414L135.863 267.837H146.452L149.174 272.772L151.896 267.837H162.53L154.491 282.414L163.082 298.046H152.504ZM196.743 298.046H186.476V267.837H196.743V298.046ZM246.472 297.095C245.335 297.566 244.164 297.949 242.969 298.24C239.254 299.142 235.355 298.931 231.76 297.633C229.831 296.914 228.069 295.811 226.58 294.393C225.093 292.984 223.919 291.279 223.135 289.388C222.298 287.342 221.881 285.15 221.906 282.941C221.872 280.693 222.306 278.463 223.181 276.391C223.983 274.51 225.154 272.809 226.626 271.387C228.088 269.993 229.819 268.91 231.714 268.203C233.68 267.443 235.772 267.055 237.881 267.058C239.427 267.039 240.969 267.204 242.475 267.55C243.654 267.835 244.806 268.218 245.92 268.696C246.941 269.12 247.915 269.65 248.826 270.276L244.06 278.658C243.554 278.278 243.025 277.93 242.475 277.616C241.877 277.348 241.263 277.115 240.637 276.918C239.849 276.678 239.027 276.562 238.203 276.574C236.469 276.563 234.799 277.229 233.551 278.429C232.948 279.011 232.47 279.709 232.146 280.481C231.822 281.252 231.66 282.082 231.668 282.918C231.663 283.766 231.839 284.606 232.185 285.38C232.545 286.162 233.065 286.861 233.712 287.43C234.327 288.015 235.048 288.477 235.837 288.793C236.692 289.129 237.605 289.296 238.524 289.285C239.399 289.3 240.27 289.18 241.108 288.93C241.771 288.728 242.41 288.455 243.015 288.117C243.596 287.809 244.133 287.424 244.611 286.972L249.377 295.343C248.485 296.045 247.509 296.634 246.472 297.095V297.095ZM291.434 298.046L290.435 295.32H281.247L280.248 298.046H270.716L282.2 267.837H289.47L300.955 298.046H291.434ZM350.155 298.046H342.116L333.812 286.445V298.046H324.314V267.837H332.262L340.622 279.471V267.837H350.109L350.155 298.046ZM422.048 298.046L417.512 290.385V298.046H407.842V267.837H418.282C420.106 267.818 421.922 268.077 423.668 268.604C425.234 269.084 426.693 269.862 427.963 270.894C429.173 271.896 430.143 273.156 430.8 274.582C431.505 276.171 431.854 277.894 431.822 279.632C431.855 280.943 431.637 282.249 431.179 283.479C430.822 284.411 430.351 285.296 429.778 286.113C429.194 286.87 428.505 287.541 427.733 288.106L433.407 298.068L422.048 298.046ZM475.188 298.046H457.019V267.837H474.878V275.761H466.701V279.116H474.74V286.629H466.701V290.064H475.188V298.046ZM518.382 292.995C517.966 294.145 517.29 295.183 516.406 296.03C515.415 296.944 514.241 297.639 512.961 298.068C511.361 298.594 509.683 298.846 507.999 298.813C506.933 298.815 505.867 298.762 504.807 298.652C503.928 298.568 503.054 298.438 502.188 298.263C501.379 298.127 500.578 297.947 499.788 297.725V288.667C500.471 288.886 501.17 289.054 501.878 289.171C502.559 289.332 503.249 289.451 503.945 289.526C504.708 289.616 505.475 289.662 506.242 289.663C507.632 289.663 508.332 289.148 508.332 288.129C508.317 287.895 508.252 287.668 508.144 287.461C508.035 287.254 507.884 287.072 507.701 286.926C507.187 286.442 506.646 285.988 506.082 285.564C505.438 285.071 504.738 284.521 503.991 283.915C503.234 283.287 502.538 282.589 501.913 281.83C501.251 281.029 500.706 280.138 500.293 279.185C499.845 278.096 499.63 276.926 499.662 275.75C499.634 274.456 499.897 273.173 500.431 271.994C500.926 270.935 501.657 270.003 502.567 269.268C503.522 268.522 504.609 267.963 505.771 267.619C507.045 267.235 508.369 267.046 509.699 267.058C510.428 267.057 511.157 267.095 511.881 267.173L513.834 267.367L515.786 267.642V276.116L514.959 276.025C514.718 276.025 514.454 275.956 514.144 275.933C513.826 275.915 513.508 275.915 513.19 275.933C513.007 275.933 512.789 275.933 512.513 275.933C512.253 275.94 511.994 275.979 511.743 276.047C511.508 276.101 511.288 276.206 511.1 276.357C511.012 276.438 510.943 276.537 510.897 276.648C510.852 276.759 510.831 276.878 510.836 276.998C510.836 277.238 511.031 277.536 511.445 277.903C511.858 278.269 512.352 278.681 512.949 279.174C513.547 279.666 514.19 280.204 514.902 280.846C515.628 281.5 516.283 282.229 516.854 283.021C517.462 283.877 517.964 284.804 518.347 285.781C518.773 286.876 518.983 288.042 518.967 289.217C518.997 290.501 518.799 291.78 518.382 292.995V292.995ZM563.344 275.761H557.762V298.046H547.817V275.761H542.224V267.837H563.39L563.344 275.761ZM605.837 298.046L604.838 295.32H595.65L594.651 298.046H585.142L596.626 267.837H603.896L615.381 298.046H605.837ZM663.811 287.041C663.848 288.814 663.548 290.578 662.927 292.24C662.381 293.649 661.507 294.909 660.377 295.916C659.219 296.908 657.865 297.649 656.404 298.091C653.026 299.051 649.446 299.051 646.068 298.091C644.611 297.654 643.264 296.912 642.117 295.916C640.994 294.908 640.128 293.648 639.59 292.24C638.97 290.578 638.67 288.814 638.706 287.041V267.837H648.376V286.629C648.318 287.489 648.553 288.345 649.042 289.056C649.648 289.594 650.43 289.891 651.241 289.891C652.052 289.891 652.835 289.594 653.441 289.056C653.925 288.342 654.16 287.489 654.107 286.629V267.837H663.811V287.041ZM703.778 298.046L699.184 290.385V298.046H689.514V267.837H699.965C701.785 267.818 703.598 268.077 705.34 268.604C706.908 269.079 708.368 269.857 709.635 270.894C710.85 271.892 711.82 273.153 712.472 274.582C713.182 276.169 713.531 277.894 713.494 279.632C713.531 280.943 713.316 282.249 712.862 283.479C712.506 284.414 712.031 285.299 711.45 286.113C710.865 286.87 710.177 287.541 709.405 288.106L715.09 298.068L703.778 298.046ZM756.963 298.046L755.964 295.32H746.776L745.777 298.046H736.164L747.649 267.837H754.919L766.404 298.046H756.963ZM839.986 267.837H861.152V275.761H855.559V298.046H845.567V275.761H839.986V267.837ZM797.837 267.837L806.198 279.471V267.837H815.684V298.046H807.645L799.33 286.445V298.046H789.844V267.837H797.837Z" fill="#3F3931"/>
<path d="M52.4042 279.426L44.5028 267.837H36.5095V298.046H46.1796V287.178L52.4042 296.236L58.583 287.178V298.046H68.253V267.837H60.2597L52.4042 279.426Z" fill="white"/>
<path d="M103.809 286.629H111.849V279.116H103.809V275.761H111.987V267.837H94.1394V298.046H112.308V290.121H103.809V286.629Z" fill="white"/>
<path d="M162.496 267.837H151.861L149.139 272.772L146.417 267.837H135.829L143.868 282.414L135.243 298.046H145.82L149.139 292.022L152.504 298.046H163.082L154.457 282.414L162.496 267.837Z" fill="white"/>
<path d="M196.743 267.837H186.476V298.046H196.743V267.837Z" fill="white"/>
<path d="M243.015 288.129C242.41 288.467 241.771 288.74 241.108 288.942C240.27 289.192 239.399 289.311 238.524 289.297C237.605 289.308 236.692 289.141 235.837 288.804C235.047 288.485 234.326 288.019 233.712 287.43C233.102 286.862 232.614 286.176 232.277 285.415C231.931 284.64 231.755 283.801 231.76 282.953C231.752 282.116 231.914 281.287 232.238 280.515C232.562 279.743 233.04 279.045 233.643 278.464C234.891 277.263 236.561 276.597 238.295 276.609C239.119 276.596 239.941 276.712 240.729 276.952C241.355 277.149 241.969 277.382 242.567 277.651C243.117 277.965 243.646 278.313 244.152 278.693L248.918 270.31C248.007 269.684 247.033 269.155 246.012 268.73C244.898 268.252 243.746 267.869 242.567 267.585C241.061 267.238 239.519 267.073 237.973 267.092C235.864 267.089 233.772 267.477 231.806 268.238C229.911 268.944 228.18 270.027 226.718 271.421C225.246 272.843 224.075 274.545 223.273 276.425C222.398 278.497 221.964 280.728 221.998 282.976C221.973 285.185 222.39 287.377 223.227 289.423C224.011 291.313 225.185 293.018 226.672 294.427C228.161 295.846 229.923 296.948 231.852 297.668C235.447 298.965 239.346 299.176 243.061 298.275C244.256 297.983 245.427 297.6 246.564 297.129C247.602 296.661 248.579 296.065 249.469 295.355L244.623 286.949C244.143 287.414 243.602 287.811 243.015 288.129V288.129Z" fill="white"/>
<path d="M282.212 267.837L270.727 298.046H280.225L281.224 295.32H290.412L291.411 298.046H300.943L289.458 267.837H282.212ZM283.808 288.667L285.841 283.365L287.885 288.667H283.808Z" fill="white"/>
<path d="M340.669 279.471L332.308 267.837H324.36V298.046H333.847V286.445L342.161 298.046H350.155V267.837H340.669V279.471Z" fill="white"/>
<path d="M429.778 286.09C430.351 285.273 430.822 284.388 431.179 283.456C431.637 282.226 431.855 280.92 431.822 279.609C431.854 277.871 431.505 276.148 430.8 274.559C430.143 273.134 429.173 271.874 427.963 270.871C426.693 269.839 425.234 269.061 423.668 268.581C421.922 268.054 420.106 267.795 418.282 267.814H407.842V298.023H417.512V290.362L422.049 298.023H433.407L427.733 288.06C428.504 287.502 429.192 286.839 429.778 286.09ZM420.946 281.922C420.062 282.457 419.04 282.724 418.006 282.689H417.512V275.979H418.04C419.074 275.944 420.096 276.21 420.98 276.746C421.349 277.068 421.644 277.465 421.847 277.911C422.049 278.356 422.153 278.839 422.153 279.328C422.153 279.817 422.049 280.3 421.847 280.746C421.644 281.191 421.349 281.588 420.98 281.91L420.946 281.922Z" fill="white"/>
<path d="M466.701 286.629H474.74V279.116H466.701V275.761H474.878V267.837H457.019V298.046H475.188V290.121H466.701V286.629Z" fill="white"/>
<path d="M516.911 283.056C516.34 282.263 515.685 281.534 514.959 280.88C514.247 280.239 513.592 279.735 513.007 279.208C512.421 278.681 511.915 278.292 511.502 277.937C511.089 277.582 510.893 277.273 510.893 277.032C510.888 276.913 510.909 276.793 510.955 276.683C511 276.572 511.069 276.472 511.157 276.391C511.346 276.241 511.566 276.135 511.801 276.082C512.052 276.013 512.31 275.975 512.57 275.967C512.846 275.967 513.064 275.967 513.248 275.967C513.565 275.949 513.883 275.949 514.201 275.967C514.511 275.967 514.775 276.025 515.016 276.059L515.843 276.15V267.676L513.891 267.402L511.938 267.207C511.214 267.129 510.485 267.091 509.756 267.092C508.426 267.08 507.102 267.269 505.829 267.654C504.666 267.997 503.579 268.557 502.624 269.303C501.714 270.037 500.983 270.969 500.488 272.028C499.954 273.207 499.691 274.49 499.719 275.784C499.687 276.961 499.903 278.131 500.35 279.219C500.763 280.173 501.308 281.063 501.97 281.865C502.595 282.624 503.291 283.321 504.049 283.949C504.795 284.556 505.496 285.094 506.139 285.598C506.703 286.022 507.244 286.477 507.758 286.961C507.941 287.106 508.092 287.289 508.201 287.496C508.31 287.703 508.374 287.93 508.39 288.163C508.39 289.182 507.689 289.697 506.3 289.697C505.532 289.696 504.765 289.65 504.003 289.56C503.307 289.485 502.616 289.367 501.935 289.205C501.227 289.088 500.529 288.92 499.845 288.701V297.736C500.635 297.959 501.436 298.139 502.245 298.275C503.111 298.449 503.985 298.579 504.864 298.664C505.925 298.773 506.99 298.827 508.057 298.824C509.741 298.857 511.418 298.605 513.018 298.08C514.298 297.651 515.472 296.956 516.463 296.042C517.347 295.195 518.023 294.156 518.439 293.007C518.871 291.806 519.089 290.538 519.082 289.262C519.098 288.088 518.887 286.922 518.462 285.827C518.061 284.843 517.54 283.912 516.911 283.056V283.056Z" fill="white"/>
<path d="M542.178 275.761H547.771V298.046H557.762V275.761H563.344V267.837H542.178V275.761Z" fill="white"/>
<path d="M596.638 267.837L585.153 298.046H594.697L595.696 295.32H604.884L605.883 298.046H615.415L603.93 267.837H596.638ZM598.223 288.667L600.267 283.365L602.311 288.667H598.223Z" fill="white"/>
<path d="M654.049 286.628C654.102 287.489 653.868 288.342 653.383 289.056C652.778 289.594 651.995 289.891 651.184 289.891C650.373 289.891 649.59 289.594 648.985 289.056C648.495 288.345 648.26 287.489 648.319 286.628V267.837H638.648V287.041C638.612 288.814 638.912 290.578 639.533 292.24C640.07 293.648 640.937 294.908 642.059 295.916C643.207 296.912 644.553 297.654 646.01 298.091C649.388 299.051 652.968 299.051 656.346 298.091C657.808 297.649 659.161 296.908 660.32 295.916C661.45 294.909 662.324 293.649 662.87 292.24C663.49 290.578 663.79 288.814 663.754 287.041V267.837H654.049V286.628Z" fill="white"/>
<path d="M711.45 286.09C712.031 285.276 712.506 284.391 712.862 283.456C713.316 282.226 713.531 280.92 713.494 279.609C713.531 277.871 713.182 276.146 712.472 274.559C711.82 273.13 710.85 271.869 709.635 270.871C708.368 269.834 706.908 269.056 705.34 268.581C703.598 268.054 701.785 267.795 699.965 267.814H689.514V298.023H699.184V290.362L703.778 298.023H715.136L709.451 288.06C710.205 287.499 710.878 286.836 711.45 286.09ZM702.618 281.922C701.737 282.456 700.719 282.723 699.689 282.689H699.184V275.979H699.689C700.719 275.945 701.737 276.212 702.618 276.746C702.995 277.063 703.298 277.458 703.506 277.904C703.714 278.35 703.821 278.836 703.821 279.328C703.821 279.82 703.714 280.306 703.506 280.752C703.298 281.198 702.995 281.593 702.618 281.911V281.922Z" fill="white"/>
<path d="M747.649 267.837L736.165 298.046H745.708L746.707 295.32H755.895L756.894 298.046H766.426L754.942 267.837H747.649ZM749.234 288.667L751.278 283.365L753.323 288.667H749.234Z" fill="white"/>
<path d="M799.33 298.046V286.445L807.645 298.046H815.638V267.837H806.152V279.471L797.791 267.837H789.844V298.046H799.33Z" fill="white"/>
<path d="M845.521 298.046H855.513V275.761H861.106V267.837H839.939V275.761H845.521V298.046Z" fill="white"/>
<path d="M866.825 210.225C872.287 213.127 877.437 216.58 882.191 220.531C884.339 213.133 890.954 198.292 905.724 195.613C897.707 187.372 888.771 180.072 879.091 173.855C872.487 179.581 865.045 190.368 866.813 210.259L866.825 210.225Z" fill="white"/>
<path d="M893.848 231.433C899.353 237.381 904.496 243.652 909.249 250.213C912.137 246.039 916.149 242.763 920.822 240.761C925.495 238.76 930.639 238.114 935.664 238.899C930.516 227.91 924.136 217.537 916.645 207.98C911.079 209.479 906.022 212.449 902.009 216.577C897.996 220.705 895.176 225.838 893.848 231.433V231.433Z" fill="white"/>
<path d="M942.888 256.878C942.382 255.378 941.82 253.923 941.268 252.469C936.715 251.391 931.941 251.699 927.565 253.352C923.188 255.006 919.409 257.929 916.714 261.745C920.384 269.426 922.715 277.674 923.605 286.136C927.024 284.572 930.794 283.929 934.54 284.27C938.286 284.612 941.877 285.926 944.955 288.083C946.924 277.674 946.213 266.938 942.888 256.878V256.878Z" fill="white"/>
<path d="M831.28 202.106C838.656 201.835 846.027 202.767 853.101 204.866C851.872 196.85 850.655 176.901 864.838 165.69C856.444 161.499 847.663 158.124 838.619 155.613L833.439 154.239C821.082 167.511 827.502 191.502 831.223 202.106H831.28Z" fill="white"/>
<path d="M924.179 297.92C924.478 304.574 923.335 311.214 920.826 317.387C916.324 324.922 904.093 343.817 904.093 343.817C909.019 345.66 931.656 327.052 941.464 300.382C938.983 298.638 936.123 297.507 933.118 297.079C930.114 296.651 927.05 296.939 924.179 297.92V297.92Z" fill="white"/>
<path d="M512.972 257.038C514.385 259.673 516.731 261.689 519.553 262.695C515.223 258.504 518.944 252.744 519.082 249.079C519.106 248.614 519.044 248.148 518.898 247.705C517.692 244.27 526.042 231.101 535.895 240.674C538.501 243.356 541.866 245.181 545.54 245.903C549.214 246.626 553.021 246.212 556.453 244.716C555.919 246.105 555.707 247.597 555.833 249.079C556.418 256.214 564.4 261.573 564.4 261.573C561.07 258.355 563.114 252.526 564.802 249.079C565.258 248.127 565.768 247.202 566.33 246.308V246.308C572.059 246.208 577.677 244.714 582.695 241.957C588.438 237.846 618.998 208.072 622.065 184.917C625.131 161.762 593.031 127.03 593.031 127.03C606.723 137.54 618.066 150.781 626.337 165.908C637.546 188.559 621.95 216.477 621.904 216.569C629.281 220.313 636.994 223.361 644.942 225.673C673.481 227.963 722.279 220.325 722.279 220.325C691.822 199.644 704.363 184.23 704.363 184.23C703.284 199.403 732.214 222.02 742.263 225.455C748.681 227.703 754.698 230.958 760.087 235.097C753.719 235.772 747.765 238.563 743.181 243.022C740.105 246.427 738.069 250.639 737.313 255.16C734.556 262.523 745.352 264.023 745.352 264.023C743.158 259.832 755.975 247.064 766.024 250.385C770.618 251.919 777.83 250.763 784.227 249.079C788.955 247.814 793.596 246.25 798.124 244.396C806.163 236.494 819.692 247.442 819.692 247.442C813.41 229.601 802.637 235.933 802.591 235.99C793.156 217.169 780.306 200.252 764.692 186.097L767.265 176.993L770.641 184.734C780.794 188.948 794.116 206.148 794.116 206.148L814.581 204.03C802.58 171.382 809.229 156.037 815.73 149.143C806.634 146.372 799.651 144.219 786.467 140.772C772.123 136.993 751.737 127.855 727.103 117.549C729.153 115.731 731.359 114.095 733.695 112.659C729.405 112.552 725.147 113.41 721.234 115.167L713.08 111.731C715.87 108.916 718.994 106.451 722.383 104.391C716.635 104.286 710.985 105.88 706.143 108.972L695.658 105.032C698.876 101.286 702.648 98.0498 706.844 95.4359C699.771 95.2889 692.878 97.6599 687.401 102.124L685.988 101.608L678.741 99.1233C683.236 93.4975 688.676 88.6929 694.82 84.9236C684.748 84.7962 675.016 88.5544 667.658 95.413L661.388 93.1915C666.099 86.674 672.035 81.1318 678.867 76.8732C673.466 76.8349 668.113 77.8957 663.137 79.9907C658.161 82.0857 653.666 85.1708 649.926 89.0575L642.542 86.2176C647.371 78.9077 653.735 72.7305 661.193 68.1129C655.57 68.0921 650.006 69.2508 644.862 71.5136C639.717 73.7765 635.108 77.093 631.333 81.2477C629.208 80.217 627.187 79.175 625.257 78.0642C630.107 70.4569 636.611 64.0346 644.287 59.2724C638.885 59.226 633.53 60.2831 628.552 62.3786C623.575 64.4741 619.08 67.5636 615.346 71.4567C613.91 70.3116 612.475 69.0863 611.085 67.8266C616.2 59.6814 621.731 51.8039 627.658 44.2253C618.679 47.9826 610.317 53.0626 602.851 59.2953C601.473 57.7265 600.094 56.066 598.647 54.2567C597.2 52.4474 595.512 50.2602 594.054 48.4051C604.746 42.2786 627.359 32.7624 627.359 32.7624C617.781 30.1859 595.202 36.4383 586.979 38.9462C585.096 36.5128 583.071 34.1918 580.915 31.9952V31.9952C594.735 28.3915 608.81 25.8419 623.018 24.3686C606.233 17.2457 587.501 16.1013 569.97 21.1278C568.133 19.5132 566.203 17.8527 564.056 16.1694C574.645 9.0466 595.064 10.4437 595.064 10.4437C573.657 2.61091 560.116 6.57309 554.294 9.64207C551.56 7.97016 548.46 6.20665 544.888 4.34007C538.491 0.98481 519.622 -1.88949 515.453 1.66044C507.035 8.76031 482.067 11.2453 475.532 18.5971C459.982 36.1177 472.994 42.5534 472.994 42.5534C472.994 42.5534 496.032 59.9595 503.026 66.4181C503.026 66.4181 531.738 107.723 527.868 106.716C523.997 105.708 514.706 96.1917 506.943 87.8895L510.652 109.452C511.328 116.514 512.479 123.523 514.098 130.431H522.55L534.253 161.213C540.237 170.191 546.174 180.073 549.941 181.23C556.338 183.177 550.412 168.736 550.412 168.736C546.016 150.166 543.45 131.212 542.752 112.144C542.935 88.2788 539.306 87.8093 558.026 80.4461C576.746 73.0828 571.13 36.0604 571.13 36.0604C584.739 73.4607 570.625 82.0035 566.536 85.0839C557.188 91.9547 552.514 95.3901 551.721 104.299C550.929 113.209 550.228 140.646 554.638 149.177C559.048 157.709 577.378 181.001 577.378 181.001L584.269 178.539C577.125 186.36 566.399 219.191 566.399 219.191C565.813 221.482 562.597 222.776 558.072 223.634C549.516 225.272 536.251 225.203 527.385 226.406C525.905 226.592 524.437 226.86 522.987 227.207C510.905 230.207 511.904 248.427 511.904 248.427C511.904 248.644 511.812 248.862 511.766 249.079C511.244 251.792 511.67 254.601 512.972 257.038V257.038ZM510.951 21.0133C512.893 18.9296 515.397 17.4502 518.163 16.7534C521.687 16.6881 525.122 17.8595 527.868 20.0628C527.868 20.0628 521.172 35.0184 510.951 21.0133ZM555.741 70.5864C554.87 71.6615 553.794 72.5548 552.576 73.215C551.358 73.8752 550.022 74.2895 548.643 74.4341H548.586C546.159 74.6833 543.72 74.0863 541.684 72.7446C539.649 71.4028 538.142 69.3992 537.421 67.0748C536.7 64.7503 536.81 62.2486 537.73 59.9954C538.651 57.7421 540.326 55.8765 542.471 54.716C544.615 53.5555 547.097 53.1718 549.493 53.6303C551.89 54.0887 554.053 55.361 555.614 57.2305C557.176 59.1 558.04 61.4513 558.059 63.8843C558.078 66.3173 557.25 68.6816 555.718 70.575L555.741 70.5864Z" fill="white"/>
</g>
<defs>
<clipPath id="clip0_407_277">
<rect width="946" height="344" fill="white"/>
</clipPath>
</defs>
</svg>
