<svg width="89" height="64" viewBox="0 0 89 64" fill="none" xmlns="http://www.w3.org/2000/svg">
<g clip-path="url(#clip0_10_893)">
<path d="M81.5025 36.3931C80.0066 34.8579 78.3401 33.4977 76.535 32.3389C75.3041 33.398 73.9221 35.4093 74.2512 39.1112C75.2687 39.6511 76.2276 40.2942 77.1127 41.0303C77.5124 39.6529 78.7433 36.9008 81.5 36.3931H81.5025Z" fill="white"/>
<path d="M79.2917 43.0561C80.3154 44.1641 81.2725 45.3313 82.1582 46.5516C82.6963 45.7761 83.4432 45.1677 84.3129 44.7964C85.1826 44.4251 86.1398 44.306 87.0744 44.4528C86.115 42.4094 84.9269 40.4806 83.5329 38.7031C82.4974 38.9819 81.5568 39.5342 80.8103 40.3017C80.0638 41.0691 79.5391 42.0233 79.2917 43.0634V43.0561Z" fill="white"/>
<path d="M88.415 47.7905C88.32 47.5112 88.2176 47.2415 88.1152 46.9719C87.2674 46.7704 86.3784 46.8271 85.5632 47.1345C84.748 47.442 84.0441 47.9861 83.5426 48.6966C84.2246 50.1257 84.6573 51.6602 84.8223 53.2342C85.4585 52.9428 86.1604 52.8231 86.8576 52.887C87.5549 52.951 88.2231 53.1963 88.7953 53.5985C89.1632 51.6616 89.0324 49.6634 88.415 47.7905Z" fill="white"/>
<path d="M73.9026 30.8278C72.3421 30.0471 70.7095 29.4182 69.0278 28.9501L68.065 28.6951C65.7641 31.1655 66.9584 35.6278 67.6531 37.6002C69.0296 37.5489 70.4054 37.722 71.726 38.1128C71.4944 36.6237 71.2677 32.912 73.9196 30.8254L73.9026 30.8278Z" fill="white"/>
<path d="M84.9368 55.4251C84.9962 56.6704 84.7833 57.9136 84.3128 59.0688C83.4744 60.4704 81.1978 63.9853 81.1978 63.9853C82.1143 64.3303 86.3359 60.8663 88.1542 55.9061C87.6931 55.5804 87.1613 55.3679 86.6022 55.286C86.0431 55.2041 85.4724 55.2551 84.9368 55.4348V55.4251Z" fill="white"/>
<path d="M48.261 21.8621C48.6389 21.5226 49.0468 21.2177 49.4797 20.9512C48.683 20.9338 47.8925 21.0948 47.1665 21.4224L45.648 20.786C46.1667 20.2621 46.7479 19.8037 47.3786 19.4208C46.3109 19.4007 45.2611 19.6957 44.3611 20.2686L42.4111 19.5398C43.0103 18.8439 43.7122 18.2427 44.4927 17.7569C43.1761 17.7287 41.8926 18.1697 40.8731 19.0006L40.6099 18.9058L39.2693 18.4467C40.0982 17.3982 41.1015 16.4994 42.2356 15.7893C40.3629 15.7631 38.5525 16.4594 37.1829 17.7326L36.0153 17.3221C36.8904 16.1077 37.9959 15.0761 39.2693 14.2857C38.2621 14.2791 37.2643 14.4784 36.3374 14.8711C35.4105 15.2638 34.5742 15.8417 33.8802 16.569L32.5055 16.0322C33.405 14.6726 34.5901 13.5239 35.9788 12.6654C34.9311 12.6604 33.894 12.8754 32.9352 13.2964C31.9764 13.7175 31.1174 14.3351 30.4141 15.1091C30.0193 14.9172 29.6415 14.7229 29.2832 14.5164C30.1889 13.1017 31.4038 11.9093 32.8369 11.0282C31.8313 11.0188 30.8344 11.2151 29.9079 11.6049C28.9813 11.9947 28.1449 12.5698 27.4502 13.2946C27.1821 13.0784 26.9164 12.8549 26.6581 12.6193C27.6077 11.1035 28.6352 9.63758 29.7365 8.22743C28.066 8.92714 26.51 9.872 25.1201 11.0306C24.8763 10.7391 24.6058 10.4306 24.3377 10.0954C24.0695 9.7602 23.7551 9.35211 23.4919 9.00475C25.4832 7.86549 29.6854 6.0898 29.6854 6.0898C27.9012 5.60398 23.7015 6.77482 22.1659 7.24121C21.8174 6.7872 21.4405 6.35557 21.0374 5.94892C23.6105 5.27968 26.231 4.80626 28.8761 4.53274C25.7548 3.21011 22.272 2.99741 19.0119 3.93032C18.6731 3.63154 18.3123 3.32304 17.9126 3.00725C19.8772 1.68338 23.6698 1.9433 23.6698 1.9433C19.6846 0.485826 17.1668 1.21456 16.087 1.78783C15.5776 1.47691 14.9999 1.15383 14.3345 0.801612C13.145 0.177328 9.64244 -0.357078 8.85759 0.315788C7.29033 1.6348 2.64216 2.09876 1.42589 3.47364C-1.46245 6.71409 0.948156 7.91164 0.948156 7.91164C0.948156 7.91164 5.24046 11.1545 6.53716 12.3472C6.53716 12.3472 11.8727 20.0329 11.1683 19.8459C10.4639 19.6589 8.73084 17.9026 7.28058 16.3528L7.97037 20.3633C8.0703 21.335 8.59435 26.3681 10.1787 27.3543C11.763 28.3405 14.1029 33.3542 15.2973 33.7162C16.4916 34.0781 15.385 31.3915 15.385 31.3915C14.5658 27.9371 14.0882 24.411 13.9591 20.8637C13.9932 16.4257 13.3181 16.3358 16.8011 14.9658C20.2842 13.5958 19.2386 6.7068 19.2386 6.7068C21.7735 13.6638 19.1459 15.2549 18.3806 15.8281C16.6403 17.1107 15.7677 17.7423 15.6214 19.4014C15.4752 21.0605 15.3436 26.164 16.165 27.7503C16.9864 29.3365 20.3988 33.6725 20.3988 33.6725L21.6711 33.2133C20.3427 34.6708 18.3465 40.7776 18.3465 40.7776C17.9906 42.1306 12.5113 41.708 10.264 42.2691C8.01668 42.8302 8.19949 46.2164 8.19949 46.2164C8.06718 46.7569 8.14011 47.3271 8.40424 47.8172C8.66837 48.3074 9.10505 48.6829 9.63025 48.8715C8.71378 47.9848 9.73262 46.7217 9.50838 46.0804C9.28414 45.4391 10.8368 42.993 12.677 44.7735C13.1626 45.2716 13.7889 45.6105 14.4725 45.745C15.1562 45.8796 15.8647 45.8034 16.5038 45.5266C15.8579 47.2269 17.9833 48.6601 17.9833 48.6601C17.0668 47.7759 18.344 45.8229 18.344 45.8229C19.4109 45.8044 20.4569 45.5259 21.3908 45.0116C22.4633 44.2464 28.1473 38.708 28.7201 34.4012C29.2929 30.0944 23.2969 23.6329 23.2969 23.6329C25.8438 25.5893 27.9539 28.0529 29.4928 30.8668C31.5841 35.0862 28.6665 40.2918 28.6665 40.2918C30.0405 40.9898 31.4767 41.559 32.9564 41.9922C38.27 42.4246 47.3518 40.9987 47.3518 40.9987C41.6799 37.1412 44.0101 34.2749 44.0101 34.2749C43.8078 37.0975 49.192 41.295 51.0786 41.9509C52.2731 42.3697 53.3929 42.9757 54.3959 43.746C53.2108 43.8721 52.1026 44.3914 51.2492 45.2205C50.676 45.8505 50.2983 46.6327 50.1621 47.4723C49.6503 48.8423 51.6563 49.1192 51.6563 49.1192C51.2468 48.3395 53.633 45.9614 55.505 46.5832C57.3769 47.2051 61.4815 45.4707 61.4815 45.4707C62.9781 43.9986 65.4935 46.0342 65.4935 46.0342C64.3236 42.7088 62.3102 43.899 62.3102 43.899C60.5522 40.395 58.1552 37.2475 55.2417 34.6174L55.7292 32.917L56.3581 34.355C58.2471 35.1396 60.7259 38.3388 60.7259 38.3388L64.5381 37.9453C62.3029 31.8725 63.5412 29.0158 64.7477 27.743C63.0537 27.228 61.7667 26.8272 59.3 26.1859C56.6189 25.4815 52.8384 23.7835 48.2512 21.8669L48.261 21.8621ZM8.01912 3.91088C8.38034 3.5223 8.84683 3.2464 9.36214 3.11656C10.0181 3.10484 10.6574 3.32322 11.1683 3.73356C11.1683 3.73356 9.92031 6.5149 8.01912 3.91088ZM15.0243 13.846C14.5717 13.8955 14.1158 13.7872 13.7343 13.5396C13.3528 13.2919 13.0692 12.9201 12.9317 12.4875C12.7943 12.0549 12.8115 11.5882 12.9804 11.1668C13.1493 10.7454 13.4595 10.3954 13.8582 10.1763C14.2569 9.95715 14.7195 9.88247 15.1672 9.96495C15.615 10.0474 16.0202 10.282 16.314 10.6287C16.6077 10.9754 16.7719 11.4128 16.7785 11.8665C16.7851 12.3202 16.6338 12.7622 16.3502 13.1172C16.1885 13.32 15.988 13.4888 15.7604 13.6139C15.5328 13.7389 15.2826 13.8178 15.0243 13.846Z" fill="white"/>
</g>
<defs>
<clipPath id="clip0_10_893">
<rect width="89" height="64" fill="white"/>
</clipPath>
</defs>
</svg>
